<?xml version="1.0" encoding="utf-8"?>
<!-- Generator: Adobe Illustrator 26.0.3, SVG Export Plug-In . SVG Version: 6.00 Build 0)  -->
<svg version="1.1" xmlns="http://www.w3.org/2000/svg" xmlns:xlink="http://www.w3.org/1999/xlink" x="0px" y="0px"
	 viewBox="0 0 144 144" style="enable-background:new 0 0 144 144;" xml:space="preserve">
<style type="text/css">
	.st0{fill:#1DA1F2;}
	.st1{fill:#FFFFFF;}
</style>
<g id="Layer_1">
	<path class="st0" d="M42.1,136.2c-18.9,0-34.3-15.4-34.3-34.3V42.1c0-18.9,15.4-34.3,34.3-34.3h59.8c18.9,0,34.3,15.4,34.3,34.3
		v59.8c0,18.9-15.4,34.3-34.3,34.3H42.1z"/>
</g>
<g id="Layer_2">
	<g>
		<path class="st1" d="M106.7,50.4c-2.2,1-4.6,1.6-6.9,2c1.1-0.2,2.7-2.2,3.4-3c1-1.2,1.8-2.7,2.3-4.2c0.1-0.1,0.1-0.3,0-0.4
			c-0.2-0.1-0.2,0-0.4,0c-2.6,1.4-5.3,2.4-8.2,3.1c-0.2,0.1-0.4,0-0.6-0.1c-0.2-0.3-0.5-0.5-0.7-0.7c-1.2-1-2.5-1.8-4-2.4
			c-1.9-0.8-4-1.1-6.1-1c-2,0.1-4,0.7-5.8,1.6c-1.8,0.9-3.4,2.2-4.7,3.8c-1.3,1.6-2.3,3.5-2.8,5.6c-0.5,2-0.4,3.9-0.1,5.9
			c0,0.3,0,0.4-0.3,0.3c-11.3-1.7-20.6-5.7-28.2-14.3c-0.3-0.4-0.5-0.4-0.8,0c-3.3,5-1.7,13,2.4,16.9c0.6,0.5,1.1,1,1.7,1.5
			c-0.2,0-3-0.3-5.4-1.5c-0.3-0.2-0.5-0.1-0.5,0.3c0,0.5,0,1,0.1,1.6c0.6,5,4.1,9.7,8.9,11.5c0.6,0.2,1.2,0.4,1.8,0.6
			c-1.1,0.2-2.2,0.4-5.3,0.2c-0.4-0.1-0.5,0.1-0.4,0.5c2.3,6.4,7.4,8.3,11.2,9.4c0.5,0.1,1,0.1,1.5,0.2c0,0-0.1,0-0.1,0.1
			c-1.3,1.9-5.6,3.3-7.7,4.1c-3.7,1.3-7.7,1.9-11.6,1.5c-0.6-0.1-0.8-0.1-0.9,0c-0.2,0.1,0,0.3,0.2,0.4c0.8,0.5,1.6,1,2.4,1.4
			c2.5,1.3,5.1,2.4,7.8,3.1c14,3.9,29.7,1,40.2-9.4c8.2-8.2,11.1-19.5,11.1-30.8c0-0.4,0.5-0.7,0.8-0.9c2.1-1.6,3.9-3.5,5.5-5.7
			c0.4-0.5,0.4-0.9,0.4-1.1c0,0,0-0.1,0-0.1C106.9,50.3,106.9,50.3,106.7,50.4z"/>
	</g>
</g>
</svg>
