<?xml version="1.0" encoding="utf-8"?>
<!-- Generator: Adobe Illustrator 26.0.3, SVG Export Plug-In . SVG Version: 6.00 Build 0)  -->
<svg version="1.1" id="Layer_1" xmlns="http://www.w3.org/2000/svg" xmlns:xlink="http://www.w3.org/1999/xlink" x="0px" y="0px"
	 viewBox="0 0 216 98.2" style="enable-background:new 0 0 216 98.2;" xml:space="preserve">
<style type="text/css">
	.st0{display:none;}
	.st1{display:inline;fill:none;stroke:#000000;stroke-width:0.25;}
	.st2{display:inline;}
	.st3{display:inline;stroke:#FFFFFF;stroke-width:2;}
	.st4{fill:#FFFFFF;}
</style>
<g id="Eagle_Left" class="st0">
	<path class="st1" d="M108-5.8h-1.1c-6-0.8-12.7-22.8-17.9-44.8c-5.2-21.9-8.9-43.8-8.9-44c-3.2-10.4-8.3-17.1-12.5-21.3
		s-7.6-5.7-7.6-5.7s-11.1-3.6-25.5-3.6s-32.1,3.7-45.3,18.1c-0.4,0.2-1.4,0.5-2.5,1s-2.4,1-3.3,1.5c0,0-0.2,0.5-0.6,1.2
		s-1,1.3-1.7,1.6c0,0-3.8,2.1-7.6,5.1c-3.8,3-7.7,7-7.9,10.8c0,0-0.1,1.9,0.2,4.2c0.2,2.3,0.8,5,2.1,6.4l0,0c0,0,0.4-2.1,2.6-4.3
		c2.2-2.3,6.3-4.7,13.6-5.4c0,0,2.4-0.8,5.6-1.2c2.6-0.4,5.7-0.3,8.5-0.2c2.9,0.1,5.8,0.7,7.9,1.3c-20.4-2.1-27.2,13.5-27.2,13.5
		C-26.2-64.7-34-68-34-68c-7.1-1.8-21.2-10.8-43.1,5.2c-20.5,14.9-31.1,7.3-31.1,7.3s4.6,11.5,47-10.1c8.5-4.3,21.9,2.2,28.6,3
		c0,0,11.8,3.3,15.5-5.8c0,0,4.2-12.7,20.8-10.2c-1.3,1.3-7.4,5.8-9.7,8.1c-2.3,2.3-4.4,4.8-5.3,6.6c0,0-0.5,0.9-0.9,2
		s-0.8,2.7-0.5,3.8c0,0,1.1-0.7,2.3-1.5s2.5-1.8,2.8-2.5c0,0,0.4-0.9,1.9-2c1.5-1.1,3.9-2.5,7.9-3.5c0,0,0.5,0.2,1.3,0.1
		s1.9-0.5,3.1-1.7c0,0,2.9-1.9,6.5-1.3s8.1,3.8,11.3,14c0,0,2.9,10.9-3.9,31c-0.4,1.1-1.9,4.2-7,7.7S0.1-10.6-13.9-8.1
		c-5.9,1.1-15.4,1.6-26,1s-22.2-2.1-32.5-5.3c0,0-9.1-3.5-19.4-10.5s-21.8-17.4-26.7-31.2c-2.1-4.1-3.3-7.1-4.1-10.3
		c-0.8-3.2-1.1-6.5-1.4-11.3c1.6-14.6,4.3-22.4,10.6-29c6.4-6.7,16.4-12.2,32.5-22.2c0,0,0.6-1,1.1-2.5s0.9-3.5,0.7-5.6
		c-0.1-10.2-4.5-14.3-8.1-18.4c-3.6-4.1-6.4-8.2-3.2-18.6c2.1-6.8,7-14.1,17.1-20.2c0,0-22.6,9.8-23,33.1
		c-1.2-5.4-1.9-12.9,0.3-22.5c2.3-9.8,7.1-22,15.9-37.1c0,0-4.1,4.7-9.1,12.1c-4.9,7.4-10.6,17.5-13.7,28.4
		c-1.3-7.9-1.7-17.4-0.6-29.1s3.6-25.5,8.2-41.7c0,0-5.1,10-9.7,24.5s-8.8,33.6-7.1,51.7c-5-7.8-9.7-18.4-13.3-32.6
		c-3.6-14.2-6.2-32-6.8-54.5c0,0-1.7,10-2.1,24.5c-0.4,14.5,0.5,33.5,5.5,51.4c-3.1-5-6.5-11.8-9.9-20.7s-6.8-19.9-9.6-33.4
		c0,0,0.1,7.2,1.6,17.7s4.4,24.2,9.9,37.2c-24.4,4.9-60-9.1-93.6-27.8c-33.6-18.8-65.2-42.3-81.6-56.4c-18.9-16.3-44.2-34-67.6-49.7
		s-44.8-29.3-55.6-37.6c-2.9-2.2-5.8-4.2-8.7-6.1c-2.9-1.9-5.9-3.6-9-5.1c-3.2-1.7-6.1-2.7-9.1-3.4c-3-0.7-6-1.2-9.6-1.7
		c-6.1-0.8-12.3-2.5-18.6-4.8s-12.7-5-19.2-7.9c-13.3-5.9-26.1-12.8-38.6-20.3s-24.8-15.5-37-23.7C-551.5-364-477.8-301-412.5-254
		s122.3,78,122.3,78l8.9,5.2l8.9,5.2c3.8,2.5,6.4,5.3,8,7.6s2.3,3.8,2.3,3.8l-15.9-7.6l-15.9-7.6c-20.8-9.9-45-18.7-66.3-26.1
		c-21.3-7.4-39.8-13.5-49.3-18.1c-3.2-1.6-6.5-3-9.7-4.2s-6.5-2.3-9.8-3.2c-3.5-1-6.5-1.4-9.6-1.5s-6.1,0.1-9.7,0.3
		c-6.2,0.4-12.6,0-19.2-0.9s-13.4-2.3-20.4-3.9c-14.2-3.1-28.1-7.4-41.8-12.2s-27.3-10.2-41-15.8c87.7,61.5,166,99.7,222.4,122.5
		s90.8,30.3,90.8,30.3c6.1,1.6,10.2,3.8,12.8,5.5c2.6,1.8,3.7,3.1,3.7,3.1l-17.6-2.7l-17.6-2.7c-18.1-2.6-38.1-4.1-56.2-5.4
		s-34.2-2.5-44.4-4.5c-3.5-0.7-7-1.2-10.5-1.6s-6.9-0.6-10.3-0.6c-3.6-0.1-6.7,0.3-9.7,1s-5.9,1.6-9.4,2.8c-5.9,2-12.2,3.2-18.8,4
		c-6.6,0.8-13.6,1.2-20.7,1.5c-14.6,0.6-29.1,0.1-43.6-1.1c-14.5-1.1-29-2.9-43.7-4.8c54.1,24.3,135.4,42.5,203.1,54.5
		s121.9,18,121.9,18c6.2,1,10.5,2.8,13.3,4.3s4,2.8,4,2.8s-31.1-1.7-65-3.2c-33.9-1.6-70.5-3-81.7-2.6c-3.6,0.1-7.1,0.4-10.6,0.8
		s-6.8,1-10.2,1.8c-3.5,0.8-6.4,1.8-9.2,3.1s-5.4,2.9-8.5,4.8c-5.3,3.2-11.1,5.9-17.4,8.2s-13,4.2-19.9,6.2
		c-14,3.9-28.3,6.7-42.7,8.9c-14.4,2.2-28.9,3.8-43.6,5.3c46.2,8.7,96,12.3,148.7,12.3c52.6,0,108-3.6,165.1-9.1l15.2-2.1l15.2-2.1
		c6.3,0,10.8,1,13.8,2s4.4,2,4.4,2s-12.1,1.7-25.3,3.5c-13.1,1.8-27.3,3.7-31.3,4.1c-11.7,1-23.9,2.7-36.2,4.6
		c-12.4,1.9-24.8,4.2-37,6.5c-4.1,0.8-8.5,1.5-12.7,2.7c-4.2,1.1-8.3,2.6-12,4.9c-1.5,0.9-2.8,2-4.1,3.2c-1.2,1.1-2.5,2.3-3.8,3.4
		c-6.4,5.3-13.5,9.3-20.7,12.7s-14.4,6.1-21.2,8.6c-7,2.6-13.8,5.1-20.6,7.3c-6.8,2.2-13.5,4.2-20.5,5.7c31.7,0.8,64.4-2.3,98-7.3
		s67.9-12.2,103-19.8c1.1-0.2,10.1-2.5,19-4.8s17.4-4.4,17.4-4.4c6.2-1.1,10.8-0.9,13.9-0.4s4.7,1.2,4.7,1.2l-17.2,5.6l-17.2,5.6
		c-11.3,3-22.8,5.8-34.4,8.9s-23.3,6.5-34.9,10.9c-3.9,1.5-8.1,4.1-12,7c-4,2.9-7.7,6.2-10.9,9.1c-1.3,1.2-2.4,2.5-3.5,3.8
		c-1,1.3-2,2.7-3.1,4c-5.4,6.3-11.7,11.6-18.1,16.1c-6.5,4.6-13.1,8.5-19.4,12.2c-6.4,3.8-12.7,7.4-19,10.7
		c-6.3,3.4-12.6,6.4-19.2,9.2c31.4-4.8,85.8-22.6,132.3-39.3s85.3-32.2,85.3-32.2c5.7-2.7,10.2-3.7,13.3-4.1c3.1-0.3,4.8,0,4.8,0
		s-16.1,9.7-34.7,21.1s-39.7,24.8-49.8,32c-3.4,2.5-7,5-10.4,7.8s-6.4,5.9-8.8,9.5c-1,1.5-1.7,3-2.3,4.6s-1.2,3.1-2,4.7
		c-3.6,7.5-8.2,14.2-13.3,20.3c-5,6.1-10.5,11.6-15.5,16.8c-5.2,5.3-10.3,10.4-15.5,15.3c-5.2,4.9-10.5,9.5-16.1,13.9
		c29-12.8,63.9-31.9,96.4-52.8s62.6-43.5,82.1-63.2l5.4-5.6l5.4-5.6c4.8-4,9-6.2,11.9-7.3c2.9-1.1,4.7-1.2,4.7-1.2l-11.5,12
		l-11.5,12c-1.6,1.5-3.5,3.5-5.2,5.5c-1.8,1.9-3.4,3.8-4.5,4.8c-15.8,15.5-27.4,30-37.8,45.4c-10.4,15.4-19.5,31.8-30.4,51.1
		c0.6,0.2,1.1,0,1.6-0.4c0.4-0.4,0.8-0.9,1.1-1.2c5.8-5.3,11.6-10.7,17.7-15.9s12.4-10,19.2-14.1c2.9-1.8,5.6-2.9,8.4-3.9
		c2.8-1,5.8-2,9.1-3.4c4.1-1.7,8.4-5.5,12.2-9.9c3.9-4.4,7.4-9.3,10.2-13.3c4.7-6.6,7.1-10.2,9.3-13.8c2.2-3.5,4.4-7,8.7-13.2l0,0
		l0,0l3.9-5.4l3.9-5.4c4.3-4.6,8.1-7.2,10.9-8.7s4.5-1.8,4.5-1.8l-8.8,12.6l-8.8,12.6c-9.1,13.2-18,29.3-26.6,47.3
		s-16.8,37.8-24.2,58.6c0.6,0.1,1.1-0.2,1.5-0.7s0.6-1.1,0.9-1.4c4.8-6.2,9.6-12.5,14.7-18.6c5.1-6.1,10.6-11.9,16.5-17.1
		c2.6-2.2,5.1-3.8,7.7-5.3s5.3-2.9,8.3-4.8c3.8-2.4,7.3-6.9,10.4-11.9s5.8-10.4,7.9-14.8c2.1-4.3,3-6,3.7-7.7s1.5-3.2,3.3-7.4l0,0
		l0,0l3.2-7.3l3.2-7.3c3.2-5.4,6.4-8.8,8.8-10.8s4-2.7,4-2.7l-6.5,15.4l-6.5,15.4c-9.5,20-15.9,38.1-20.7,56.7s-8.2,37.7-11.9,59.6
		c0.7,0,1.1-0.4,1.3-1c0.3-0.5,0.4-1.2,0.6-1.5c3.6-6.9,7.2-14.1,11.2-21c3.9-6.9,8.2-13.6,13.2-19.8c2.1-2.6,4.3-4.6,6.6-6.6
		s4.7-3.8,7.3-6.2c3.3-3,6-8.1,8.1-13.5s3.8-11.3,5.1-16c1.2-4.5,2-7.3,2.7-10.1s1.3-5.6,2.3-9.8l0,0l0,0l2.1-8.6l2.1-8.6
		c2.1-5.9,4.7-9.8,6.6-12.3c2-2.4,3.4-3.4,3.4-3.4L-4,137.2l-3.8,17.1c-5.3,21.5-9.2,41.2-12,61s-4.4,39.8-5.1,62
		c0.7-0.1,1-0.6,1.2-1.1s0.3-1.2,0.4-1.6c2.6-7.4,5.3-14.9,8.3-22.3c3-7.4,6.3-14.6,10.4-21.4c1.8-2.9,3.6-5.2,5.7-7.4
		s4.2-4.4,6.5-7.2c2.9-3.4,4.5-11.7,5.6-20.2c1.1-8.6,1.7-17.5,2.3-22.2c0.7-4.8,1.2-9.6,1.8-14.2s1-9.3,1.4-13.8l1-8.8l1-8.8
		c1.4-6.1,3.3-10.3,5-13c1.6-2.7,2.9-3.8,2.9-3.8L27,128.9l-1.6,17.4c-1.4,15.1-2.9,37-3,58.8c0,21.8,1.4,43.5,6.1,58.2
		c0.4,0,0.6-0.4,0.6-0.8c0.1-0.4,0.1-0.9,0.1-1.2c0.9-5.4,1.8-10.9,2.9-16.3c1.1-5.4,2.5-10.7,4.4-15.6c0.8-2.1,1.8-3.8,2.8-5.4
		c1-1.6,2.2-3.2,3.3-5.2c1.5-2.5,2.1-6.4,2.4-10.6c0.3-4.2,0.2-8.6,0.1-12.1c-0.1-2.6-1.2-19.5-1.2-19.5l-0.7-17.5
		c0,0,1.2,1.2,2.7,4s3.2,7.1,4.3,13.3l1,17.6c-0.2,16.9-0.1,21.4,1.2,38.7c1.4,17.3,3.9,34.3,8.7,50.3c0.4-0.1,0.5-0.4,0.6-0.7
		c0.1-0.3,0-0.8,0.1-1.4c0.4-5.5,0.8-8.7,1.4-11.9c0.6-3.2,1.5-6.2,2.8-11.3c0.5-2.2,1-3.9,1.6-5.6c0.6-1.7,1.2-3.4,2.1-5.5
		c1.1-2.6,1.6-6.6,1.6-10.8s-0.5-8.6-1.2-12c-1.6-7.4-3.1-11-4.3-14.9c-1.1-3.9-1.9-8-1.8-16.2c3.2,2.2,5.2,3.5,7.4,5.1
		s4.5,3.4,8.6,6.4c4.1,8,7.7,25,8,43.6s-3.5,38.8-12.1,53.2c0,0,6.3,17.3,12.9,56.2C95,395.6,102.9,456,108,542.3l0,0l0,0"/>
</g>
<g id="Eagle_Right" class="st0">
	<path class="st1" d="M108,542.3L108,542.3L108,542.3L108,542.3c5.1-86.2,13-146.7,19.6-185.5c6.6-38.9,12.9-56.2,12.9-56.2
		c-8.7-14.4-12.5-34.6-12.1-53.2c0.4-18.6,3.9-35.6,8-43.6c4-3,6.4-4.8,8.6-6.4s4.1-2.9,7.4-5.1c0.1,8.2-0.6,12.3-1.8,16.2
		c-1.2,3.9-2.7,7.5-4.3,14.9c-0.7,3.4-1.2,7.8-1.2,12s0.4,8.2,1.6,10.8c0.9,2.1,1.5,3.8,2.1,5.5c0.6,1.7,1.1,3.5,1.6,5.6
		c1.3,5.1,2.2,8.2,2.8,11.3s1.1,6.4,1.4,11.9c0,0.5,0,1,0.1,1.4s0.2,0.6,0.6,0.7c4.7-16,7.3-33,8.7-50.3s1.4-21.8,1.2-38.7l1-17.6
		c1-6.2,2.8-10.5,4.3-13.3s2.7-4,2.7-4l-0.6,17.5c0,0-1.2,16.9-1.2,19.5c-0.1,3.5-0.2,8,0.1,12.1c0.3,4.2,1,8.1,2.4,10.6
		c1.2,2,2.3,3.6,3.4,5.2c1.1,1.6,2,3.3,2.8,5.4c1.9,4.9,3.3,10.2,4.4,15.6c1.1,5.4,2,10.9,2.9,16.3c0.1,0.3,0,0.8,0.1,1.2
		s0.2,0.8,0.6,0.8c4.6-14.6,6.1-36.4,6.1-58.2s-1.6-43.7-3-58.8l-1.6-17.4l-1.6-17.4c0,0,1.3,1.1,2.9,3.8c1.6,2.7,3.6,6.9,5,13
		l1,8.8l1,8.8c0.5,4.6,0.9,9.1,1.4,13.8s1.1,9.4,1.8,14.2s1.2,13.7,2.3,22.2c1.1,8.6,2.8,16.8,5.6,20.2c2.3,2.7,4.4,4.9,6.5,7.2
		c2,2.2,3.9,4.5,5.6,7.4c4.1,6.8,7.4,14,10.4,21.4c3,7.4,5.6,14.9,8.3,22.3c0.1,0.4,0.2,1,0.4,1.6s0.5,1,1.2,1.1
		c-0.7-22.1-2.3-42.2-5.1-62s-6.7-39.5-12-61l-3.8-17.1l-3.8-17.1c0,0,1.4,1,3.4,3.4s4.5,6.4,6.6,12.3l2.1,8.6l2.1,8.6l0,0l0,0
		c1,4.3,1.6,7,2.3,9.8s1.4,5.7,2.7,10.1c1.3,4.7,2.9,10.5,5.1,16s4.8,10.5,8.1,13.5c2.6,2.4,5.1,4.3,7.4,6.2
		c2.3,1.9,4.5,3.9,6.6,6.6c4.9,6.2,9.2,12.9,13.2,19.8s7.6,14,11.1,21c0.2,0.4,0.4,1,0.6,1.5c0.3,0.5,0.7,1,1.3,1
		c-3.6-21.9-7-40.9-11.9-59.6c-4.9-18.7-11.2-36.8-20.7-56.7l-6.5-15.4l-6.5-15.4c0,0,1.6,0.7,4,2.7s5.6,5.4,8.8,10.8l3.2,7.3
		l3.2,7.3l0,0l0,0c1.8,4.1,2.5,5.7,3.3,7.4c0.8,1.6,1.6,3.3,3.7,7.7c2.1,4.4,4.8,9.8,7.9,14.8c3.1,5,6.6,9.5,10.4,11.9
		c3,1.9,5.8,3.3,8.4,4.8s5.1,3.1,7.6,5.3c6,5.2,11.4,11,16.5,17.1s10,12.4,14.7,18.6c0.3,0.3,0.5,0.9,0.9,1.4s0.8,0.8,1.5,0.7
		c-7.5-20.8-15.6-40.7-24.2-58.6c-8.6-18-17.6-34.1-26.6-47.3l-8.9-12.6l-8.9-12.6c0,0,1.7,0.3,4.5,1.8s6.6,4.1,10.9,8.7l3.9,5.4
		l3.9,5.4l0,0l0,0c4.3,6.2,6.5,9.6,8.7,13.1s4.6,7.2,9.3,13.8c2.8,3.9,6.4,8.9,10.2,13.3c3.9,4.4,8.1,8.2,12.2,9.9
		c3.3,1.4,6.2,2.3,9,3.4c2.8,1,5.5,2.2,8.4,3.9c6.8,4.1,13.1,8.9,19.2,14.1c6.1,5.1,11.9,10.6,17.7,15.9c0.3,0.3,0.7,0.8,1.1,1.2
		s1,0.7,1.6,0.4c-10.9-19.3-20-35.7-30.4-51.1s-22-29.9-37.8-45.4c-1.1-1.1-2.8-2.9-4.5-4.8c-1.8-1.9-3.7-4-5.2-5.5l-11.5-12
		l-11.5-12c0,0,1.7,0.1,4.7,1.2c2.9,1.1,7.1,3.2,11.9,7.3l5.4,5.6l5.4,5.6c19.5,19.8,49.6,42.4,82.1,63.2
		c32.5,20.9,67.4,40,96.4,52.8c-5.6-4.4-10.9-9-16.1-13.9s-10.3-10-15.5-15.3c-5.1-5.2-10.5-10.7-15.5-16.8s-9.7-12.8-13.3-20.3
		c-0.7-1.6-1.3-3.1-2-4.7c-0.6-1.6-1.4-3.1-2.3-4.6c-2.3-3.6-5.4-6.7-8.8-9.5s-7-5.3-10.4-7.8c-10-7.3-31.2-20.5-49.8-32
		c-18.4-11.3-34.5-21-34.5-21s1.7-0.3,4.8,0c3.1,0.3,7.7,1.4,13.3,4.1c0,0,38.7,15.5,85.3,32.2s101,34.6,132.3,39.3
		c-6.6-2.8-12.9-5.9-19.2-9.2s-12.6-6.9-19-10.7c-6.2-3.7-12.9-7.6-19.4-12.2s-12.7-9.8-18.1-16.1c-1.1-1.3-2.1-2.7-3.1-4
		s-2.1-2.7-3.5-3.8c-3.2-2.8-7-6.1-10.9-9.1c-4-2.9-8.1-5.6-12-7c-11.6-4.4-23.3-7.8-34.9-10.9c-11.6-3.1-23.1-5.8-34.5-8.9
		l-17.2-5.6l-17.2-5.6c0,0,1.6-0.8,4.7-1.2c3.1-0.5,7.8-0.7,13.9,0.4c0,0,8.6,2.2,17.4,4.4s17.9,4.5,19,4.8
		c35,7.5,69.4,14.7,103,19.8c33.5,5.1,66.3,8.1,98,7.3c-7-1.6-13.7-3.5-20.5-5.7s-13.6-4.7-20.6-7.3c-6.8-2.5-14-5.2-21.2-8.6
		s-14.2-7.5-20.7-12.7c-1.3-1.1-2.5-2.3-3.8-3.4c-1.2-1.2-2.5-2.2-4.1-3.2c-3.6-2.2-7.7-3.7-12-4.9c-4.2-1.1-8.6-1.9-12.7-2.7
		c-12.2-2.3-24.7-4.5-37-6.5c-12.4-1.9-24.6-3.5-36.2-4.6c-4-0.4-18.2-2.2-31.3-4.1C376.1,9.6,364,7.9,364,7.9s1.4-1,4.4-2
		s7.5-2,13.8-2L397.3,6l15.2,2.1c57.1,5.6,112.5,9.1,165.1,9.1S680.1,13.6,726.3,5c-14.7-1.5-29.2-3.1-43.6-5.3S654-5.3,640-9.2
		c-6.9-1.9-13.6-3.9-19.9-6.2c-6.3-2.3-12.1-4.9-17.4-8.2c-3.1-1.9-5.7-3.5-8.5-4.8s-5.7-2.4-9.2-3.1c-3.4-0.7-6.7-1.3-10.2-1.8
		s-7-0.7-10.6-0.8c-11.1-0.4-47.8,1.1-81.7,2.6c-33.9,1.6-65,3.2-65,3.2s1.2-1.2,4-2.8c2.8-1.5,7.1-3.3,13.3-4.3
		c0,0,54.2-6,121.9-18c67.7-12.1,149-30.2,203.1-54.5c-14.6,1.9-29.2,3.7-43.7,4.8s-29,1.7-43.6,1.1c-7.2-0.3-14.1-0.7-20.7-1.5
		s-13-2-18.8-4c-3.4-1.1-6.4-2.1-9.3-2.8c-3-0.7-6-1-9.7-1c-3.4,0.1-6.9,0.3-10.3,0.6c-3.5,0.4-6.9,0.9-10.5,1.6
		c-10.2,2-26.4,3.2-44.4,4.5c-18.1,1.3-38.1,2.8-56.2,5.4L475-96.4l-17.6,2.7c0,0,1.1-1.3,3.7-3.1c2.6-1.8,6.7-3.9,12.8-5.5
		c0,0,34.4-7.5,90.8-30.3c56.3-22.8,134.6-61,222.4-122.5c-13.7,5.6-27.3,11-41,15.8s-27.6,9-41.8,12.2c-7,1.6-13.8,2.9-20.4,3.9
		s-13,1.4-19.2,0.9c-3.6-0.2-6.7-0.4-9.7-0.3c-3.1,0.1-6.1,0.6-9.6,1.5c-3.3,0.9-6.6,2-9.8,3.2s-6.5,2.6-9.7,4.2
		c-9.5,4.6-28,10.7-49.3,18.1c-21.3,7.4-45.5,16.2-66.3,26.1l-15.9,7.6l-15.9,7.6c0,0,0.6-1.6,2.3-3.8c1.6-2.2,4.2-5.1,8-7.6
		l8.9-5.2l8.9-5.2c0,0,57-31,122.3-78s139-110,172.4-173.8c-12.3,8.2-24.5,16.2-37,23.7s-25.3,14.3-38.6,20.3
		c-6.5,2.9-12.9,5.6-19.2,7.9c-6.3,2.2-12.5,3.9-18.6,4.8c-3.6,0.5-6.6,0.9-9.6,1.7c-3,0.7-5.9,1.8-9.1,3.4c-3.1,1.6-6,3.3-9,5.1
		c-2.9,1.9-5.8,3.9-8.7,6.1c-10.8,8.3-32.2,22-55.6,37.6s-48.8,33.4-67.6,49.7c-16.3,14.2-47.9,37.7-81.6,56.4s-69.2,32.7-93.6,27.8
		c5.5-12.9,8.4-26.7,9.9-37.2s1.6-17.7,1.6-17.7c-2.9,13.5-6.2,24.6-9.6,33.4s-6.9,15.7-9.9,20.7c5.1-17.9,5.9-36.9,5.5-51.4
		s-2.1-24.5-2.1-24.5c-0.7,22.4-3.2,40.3-6.8,54.5c-3.6,14.2-8.3,24.7-13.3,32.6c1.8-18.1-2.4-37.2-7.1-51.7
		c-4.6-14.5-9.7-24.5-9.7-24.5c4.6,16.2,7.2,30,8.2,41.7s0.7,21.3-0.6,29.1c-3.1-10.9-8.8-21-13.7-28.4c-4.9-7.4-9-12.1-9-12.1
		c8.9,15.1,13.7,27.4,15.9,37.1c2.2,9.7,1.6,17.2,0.3,22.5c-0.3-23.3-23-33.1-23-33.1c10.1,6.1,15,13.4,17.1,20.2
		c3.2,10.4,0.4,14.5-3.2,18.6s-8,8.2-8.1,18.4c-0.2,2.1,0.2,4.1,0.7,5.6s1.1,2.5,1.1,2.5c16.1,10,26.1,15.6,32.5,22.2
		c6.4,6.7,9.1,14.5,10.6,29c-0.3,4.8-0.6,8.1-1.4,11.3s-2,6.2-4.1,10.3C329.6-40.4,318.1-30,307.8-23c-10.3,7-19.4,10.5-19.4,10.5
		c-10.3,3.1-21.9,4.7-32.5,5.3s-20.1,0.1-26-1c-14-2.5-22.4-6.3-27.4-9.7s-6.6-6.6-7-7.7c-6.8-20.1-3.9-31-3.9-31
		c3.2-10.2,7.7-13.3,11.3-13.9s6.5,1.3,6.5,1.3c1.2,1.2,2.3,1.6,3.1,1.7s1.3-0.1,1.3-0.1c4,1,6.5,2.4,7.9,3.5s1.9,2,1.9,2
		c0.3,0.7,1.6,1.7,2.8,2.5s2.3,1.5,2.3,1.5c0.3-1.2-0.1-2.6-0.5-3.8s-0.9-2-0.9-2c-0.9-1.8-3-4.3-5.3-6.6s-8.5-6.8-9.7-8.1
		c16.6-2.4,20.8,10.2,20.8,10.2c3.7,9.1,15.5,5.8,15.5,5.8c6.6-0.9,20-7.4,28.6-3.1c42.4,21.6,47,10,47,10s-10.6,7.6-31.1-7.3
		c-21.9-15.9-36-7-43.1-5.2c0,0-7.8,3.3-12.8-3.6c0,0-6.8-15.6-27.2-13.5c2.1-0.5,5-1.1,7.9-1.3c2.8-0.1,5.9-0.2,8.5,0.2
		c3.2,0.5,5.6,1.2,5.6,1.2c7.4,0.7,11.4,3.1,13.6,5.4c2.2,2.3,2.6,4.3,2.6,4.3c1.3-1.5,1.9-4.1,2.1-6.4c0.2-2.3,0.2-4.2,0.2-4.2
		c-0.2-3.8-4.1-7.8-7.9-10.8c-3.8-3-7.6-5.1-7.6-5.1c-0.7-0.3-1.3-1-1.7-1.6s-0.6-1.2-0.6-1.2c-0.9-0.5-2.1-1-3.3-1.5
		s-2.1-0.9-2.5-1c-13.2-14.4-30.9-18-45.3-18s-25.5,3.6-25.5,3.6s-3.4,1.6-7.7,5.7c-4.2,4.2-9.3,10.9-12.5,21.3
		c-0.1,0.2-3.8,22-8.9,44c-5.2,22-11.9,44.1-17.9,44.8H108"/>
</g>
<g id="_x35_3x33" class="st0">
	<rect x="-1800" y="-1138.9" class="st2" width="3816" height="2376"/>
</g>
<g id="_x31_06x66" class="st0">
	<rect x="-3708" y="-2326.9" class="st2" width="7632" height="4752"/>
</g>
<g id="_x33_.5x2_scaled" class="st0">
	<path class="st3" d="M1023.4,441.2c0,72.3-58.6,130.9-130.9,130.9H-678.6c-72.3,0-130.9-58.6-130.9-130.9v-785.5
		c0-72.3,58.6-130.9,130.9-130.9H892.5c72.3,0,130.9,58.6,130.9,130.9V441.2L1023.4,441.2z"/>
</g>
<g id="Chaos_corss_-_Back" class="st0">
	<g class="st2">
		<polygon points="107.5,707.9 -4.9,327.4 65.4,367.8 66.9,368.7 66.9,367 66.9,258.4 66.9,257.7 66.3,257.5 -10.5,225.6 
			-11.2,225.3 -11.6,225.8 -88.3,302.4 -89.5,303.7 -87.8,304.1 -9.5,325.3 -358.1,514.9 -168.5,166.3 -147.3,244.6 -146.9,246.3 
			-145.7,245.1 -68.9,168.3 -68.4,167.9 -68.7,167.2 -100.5,90.3 -100.7,89.7 -101.4,89.7 -209.8,89.7 -211.5,89.7 -210.7,91.2 
			-170.2,161.5 -550.8,49.1 -170.2,-63.2 -210.7,7.1 -211.5,8.6 -209.8,8.6 -101.3,8.6 -100.6,8.6 -100.3,7.9 -68.4,-68.9 
			-68.2,-69.5 -68.7,-70 -145.3,-146.7 -146.5,-147.9 -147,-146.2 -168.1,-67.9 -357.7,-416.5 -9.2,-226.8 -87.5,-205.7 
			-89.1,-205.3 -87.9,-204 -11.2,-127.3 -10.7,-126.8 -10.1,-127.1 66.8,-158.9 67.4,-159.1 67.4,-159.8 67.4,-268.2 67.4,-269.9 
			65.9,-269 -4.4,-228.6 108,-609.2 220.4,-228.6 150.1,-269 148.6,-269.9 148.6,-268.2 148.6,-159.6 148.6,-159 149.2,-158.7 
			226.1,-126.8 226.7,-126.6 227.1,-127 303.8,-203.7 305,-204.9 303.4,-205.4 225.1,-226.5 573.6,-416.1 384,-67.6 362.9,-145.9 
			362.4,-147.5 361.2,-146.3 284.4,-69.6 284,-69.1 284.2,-68.5 316,8.4 316.3,9.1 316.9,9.1 425.3,9.1 427,9.1 426.2,7.6 
			385.8,-62.8 766.3,49.6 385.8,162 426.2,91.7 427,90.2 425.3,90.2 316.8,90.2 316.1,90.2 315.9,90.8 284,167.7 283.7,168.3 
			284.2,168.8 360.8,245.4 362,246.6 362.5,245 383.6,166.7 573.2,515.2 224.7,325.6 303,304.5 304.7,304 303.5,302.8 226.7,226.1 
			226.2,225.6 225.6,225.8 148.7,257.6 148.1,257.9 148.1,258.5 148.1,367 148.1,368.7 149.6,367.8 219.9,327.4 		"/>
		<path class="st4" d="M108-612.7l114,386.2l-72.4-41.7v108.5l76.9,31.9l76.7-76.7l-80.7-21.8l353.7-192.4L383.7-64.9l-21.8-80.7
			l-76.8,76.8l31.8,76.9h108.4l-41.6-72.5l386.1,114l-386.2,114l41.6-72.5H316.8L284.9,168l76.6,76.6l21.8-80.7l192.4,353.7
			L222,325.3l80.7-21.8L226,226.8l-76.9,31.8V367l72.5-41.7L107.5,711.5l-114-386.2L65.9,367V258.4L-11,226.5l-76.6,76.6l80.7,21.8
			l-353.7,192.4l192.4-353.7l21.8,80.7l76.8-76.7l-31.8-76.9h-108.4l41.7,72.5L-554.3,49.1l386.2-114l-41.7,72.5h108.5l31.9-76.9
			l-76.6-76.6l-21.8,80.7l-192.4-353.7L-6.5-226.5l-80.7,21.8l76.7,76.8l76.9-31.8v-108.4L-6-226.5L108-612.7 M108-605.6L-2.7-230.7
			l68.1-39.2l3-1.7v3.5v108.4v1.3l-1.2,0.5l-76.9,31.8l-1.2,0.5l-0.9-0.9l-76.7-76.8l-2.4-2.4l3.3-0.9l75.9-20.5L-355.2-414
			l186.8,343.4l20.5-75.9l0.9-3.3l2.4,2.4L-68-70.7l0.9,0.9l-0.5,1.2L-99.5,8.3l-0.5,1.2h-1.3h-108.6h-3.5l1.7-3l39.2-68.1
			L-547.3,49.1l374.9,110.7l-39.2-68.2l-1.7-3h3.5h108.4h1.3l0.5,1.2l31.8,76.9l0.5,1.2l-0.9,0.9l-76.8,76.7l-2.4,2.4l-0.9-3.3
			l-20.5-75.9l-186.8,343.4l343.4-186.8l-75.9-20.5l-3.3-0.9l2.4-2.4l76.6-76.6l1-0.9l1.2,0.5l76.9,31.9l1.2,0.5v1.3v108.5v3.5
			l-3-1.7l-68.1-39.2l110.7,375.1l110.7-374.9L150,368.7l-3,1.7v-3.5V258.5v-1.3l1.2-0.5l76.9-31.8l1.2-0.5l0.9,0.9L304,302l2.4,2.4
			l-3.3,0.9l-75.9,20.5l343.4,186.8L384,169.4l-20.5,75.9l-0.9,3.3l-2.4-2.4l-76.6-76.6l-0.9-0.9l0.5-1.2l31.9-76.9l0.5-1.2h1.3
			h108.5h3.5l-1.7,3L388,160.5L762.8,49.6L387.9-61.1l39.2,68.2l1.7,3h-3.5H316.9h-1.3l-0.5-1.2L283.3-68l-0.5-1.2l0.9-0.9
			l76.8-76.7l2.4-2.4l0.9,3.3L384.3-70l186.8-343.4L227.7-226.8l75.9,20.5l3.3,0.9l-2.5,2.4l-76.7,76.7l-0.9,0.9l-1.2-0.5
			l-76.9-31.9l-1.2-0.5v-1.3v-108.5v-3.5l3,1.7l68.1,39.2L108-605.6L108-605.6z"/>
	</g>
</g>
<g id="Layer_9" class="st0">
</g>
<g>
	<path d="M169.3,21.6c-1.3,0.5-2.4,0.9-3.4,1.3c-1.4,0.5-2.6,0.8-3.8,1.1c-0.6,0.1-1.2,0.3-1.9,0.4c-0.7,0.1-1.2,0.1-1.8,0.1h-0.1
		c-0.3,0-0.5,0-0.8,0s-0.6,0.1-0.9,0.1c-0.3,0.1-0.6,0.2-0.9,0.3c-0.3,0.1-0.5,0.2-0.9,0.4c-0.8,0.4-2.2,0.8-3.8,1.4l-0.7,0.2
		c-1.9,0.7-4.1,1.5-6,2.4l-3,1.4v-0.1c0,0,0.1-0.2,0.2-0.4c0.2-0.3,0.5-0.5,0.7-0.7l1.6-0.9c0.1,0,5.2-2.9,11.1-7.1
		c5.4-3.9,12.4-9.7,15.6-15.6c-1.1,0.7-2.2,1.4-3.2,2.1c-1.2,0.7-2.4,1.3-3.5,1.8c-0.5,0.2-1.1,0.5-1.8,0.7
		c-0.6,0.2-1.2,0.4-1.7,0.4c-0.3,0-0.6,0.1-0.9,0.1c-0.3,0.1-0.6,0.2-0.8,0.3c-0.2,0.1-0.5,0.3-0.8,0.5c-0.3,0.2-0.5,0.4-0.8,0.5
		c-0.7,0.5-1.9,1.3-3.3,2.2c-0.6,0.4-1.2,0.8-1.8,1.2c-1.9,1.3-4.4,3-6.1,4.5c-1.6,1.4-4.5,3.5-7.4,5.1c-3.7,2.1-6.6,2.9-8.5,2.5
		h-0.1v-0.1c0.4-1,0.7-2.1,0.9-3.4c0.1-0.4,0.1-0.8,0.1-1.1c-0.2,0.9-0.5,1.8-0.8,2.5c-0.3,0.8-0.6,1.4-0.9,1.9H129
		c0.5-1.7,0.5-3.5,0.5-4.7c0-0.7-0.1-1.3-0.1-1.7c-0.1,1.7-0.3,3.2-0.6,4.4c-0.3,1.2-0.7,2.2-1.2,3h-0.1c0.1-1.4-0.1-2.9-0.6-4.7
		c-0.2-0.7-0.5-1.3-0.6-1.7c0.3,1.2,0.5,2.3,0.6,3.3s0.1,1.9,0,2.7h-0.1c-0.2-0.8-0.6-1.6-1.2-2.6c-0.2-0.2-0.3-0.5-0.5-0.6
		c0.6,1,1,2,1.2,2.9c0.2,0.7,0.2,1.4,0,2.1h-0.1c0-1.1-0.6-1.9-1.2-2.4c0.4,0.4,0.6,0.8,0.7,1.2c0.3,1,0,1.4-0.3,1.7l-0.1,0.1
		c-0.3,0.4-0.6,0.7-0.7,1.6c0,0.2,0,0.4,0.1,0.5c0,0.1,0.1,0.2,0.1,0.2c0.2,0.1,0.4,0.3,0.7,0.4c1.1,0.7,1.8,1.1,2.3,1.6
		c0.6,0.6,0.8,1.3,1,2.7c0,0.5-0.1,0.8-0.1,1c-0.1,0.3-0.2,0.6-0.4,1c-0.2,1.4-1.3,2.4-2.2,3s-1.8,1-1.8,1c-1.1,0.3-2.2,0.4-3,0.5
		c-0.9,0-1.8,0-2.4-0.1c-1.4-0.2-2.1-0.6-2.5-0.9c-0.5-0.3-0.6-0.7-0.6-0.7c-0.6-1.8-0.4-2.8-0.4-2.8c0.2-0.8,0.6-1.2,1.1-1.3
		c0.3-0.1,0.6,0.1,0.6,0.1c0.1,0.1,0.2,0.1,0.3,0.1c0.1,0,0.1,0,0.1,0l0,0l0,0c0.4,0.1,0.6,0.2,0.7,0.3s0.2,0.2,0.2,0.2
		s0.1,0.1,0.2,0.2c0.1,0,0.1,0.1,0.1,0.1c0-0.1,0-0.2,0-0.2c0-0.1-0.1-0.2-0.1-0.2c-0.1-0.2-0.3-0.4-0.5-0.6
		c-0.1-0.1-0.4-0.3-0.6-0.5c-0.1-0.1-0.2-0.2-0.3-0.2l-0.1-0.1h0.1c1.5-0.2,1.9,0.9,1.9,1c0.3,0.8,1.3,0.5,1.4,0.5
		c0.2,0,0.4-0.1,0.6-0.2c0.6-0.2,1.4-0.4,2-0.1c2.4,1.2,3.5,1.3,3.9,1.1c-0.4,0.1-1.3,0.1-2.5-0.8c-1.7-1.2-2.9-0.8-3.6-0.6
		c-0.1,0-0.2,0.1-0.3,0.1c0,0-0.7,0.3-1.2-0.3c0,0-0.6-1.4-2.4-1.2v-0.1c0.1,0,0.4-0.1,0.7-0.1c0.2,0,0.5,0,0.8,0s0.5,0.1,0.5,0.1
		c0.7,0.1,1.1,0.3,1.3,0.5c0.1,0.1,0.2,0.2,0.2,0.3c0.1-0.1,0.1-0.3,0.1-0.5s0-0.4,0-0.4c0-0.4-0.4-0.7-0.7-0.9
		c-0.3-0.3-0.7-0.5-0.7-0.5c-0.1,0-0.1-0.1-0.2-0.2v-0.1c-0.1,0-0.2-0.1-0.3-0.1l0,0c-0.1,0-0.2-0.1-0.2-0.1l0,0
		c-0.7-0.7-1.9-1.6-4.1-1.6c-1.3,0-2.3,0.3-2.3,0.3s-0.3,0.1-0.7,0.5c-0.5,0.5-0.9,1.2-1.1,1.9c0,0,0,0.1,0,0.2
		c-0.1,0.6-0.4,2.2-0.8,3.8c-0.6,2.7-1.2,4-1.7,4.1h-0.2c-0.5-0.1-1-1.4-1.7-4.1c-0.4-1.9-0.8-3.8-0.8-4c-0.3-1-0.8-1.6-1.1-1.9
		c-0.4-0.4-0.7-0.5-0.7-0.5s-1-0.3-2.2-0.3c0,0,0,0-0.1,0c-1.2,0-2.9,0.3-4.1,1.6l0,0l0,0c0,0-0.1,0-0.1,0.1h-0.1
		c-0.1,0-0.2,0.1-0.3,0.1v0.1c0,0.1-0.1,0.1-0.2,0.2c0,0-0.3,0.2-0.7,0.5c-0.4,0.3-0.7,0.7-0.7,0.9c0,0,0,0.2,0,0.4s0.1,0.4,0.1,0.5
		c0-0.1,0.1-0.2,0.2-0.3c0.2-0.2,0.6-0.4,1.3-0.5c0,0,0.2-0.1,0.5-0.1c0.2,0,0.5,0,0.8,0c0.2,0,0.5,0,0.7,0.1V37c-0.1,0-0.2,0-0.3,0
		c-1.5,0-2.1,1.2-2.1,1.2c-0.5,0.7-1.2,0.4-1.2,0.4c-0.1,0-0.2-0.1-0.3-0.1c-0.7-0.2-1.9-0.7-3.6,0.6c-1.2,0.9-2.1,0.9-2.5,0.8
		c0.4,0.1,1.5,0.1,3.9-1.1c0.6-0.3,1.4-0.1,2,0.1c0.2,0.1,0.5,0.1,0.6,0.2c0,0,1.1,0.3,1.4-0.5c0,0,0.4-1.2,1.9-1h0.1l-0.1,0.1
		c-0.1,0.1-0.2,0.2-0.4,0.3c-0.2,0.1-0.4,0.3-0.5,0.4c-0.2,0.2-0.4,0.4-0.5,0.6c0,0,0,0.1-0.1,0.2c0,0.1,0,0.1,0,0.2v0.1l0.1-0.1
		c0.2-0.1,0.2-0.2,0.2-0.2s0-0.1,0.2-0.2c0.2-0.1,0.4-0.3,0.7-0.3l0,0l0,0c0,0,0,0,0.1,0c0,0,0.1,0,0.3-0.1c0,0,0.3-0.2,0.6-0.1
		c0.5,0.1,0.8,0.5,1.1,1.3c0,0,0.3,1-0.4,2.8c0,0-0.1,0.4-0.6,0.7c-0.6,0.4-1.4,0.7-2.5,0.9c-0.6,0.1-1.4,0.1-2.4,0.1
		c-0.8,0-1.9-0.2-3-0.5c0,0-0.8-0.3-1.8-1c-0.9-0.6-2-1.5-2.4-2.9c-0.2-0.4-0.3-0.6-0.4-0.9c-0.1-0.3-0.1-0.6-0.1-1
		c0.1-1.4,0.4-2.1,1-2.7c0.5-0.5,1.2-0.9,2.2-1.6c0.2-0.1,0.5-0.3,0.8-0.5c0,0,0.1-0.1,0.1-0.2c0.1-0.2,0.1-0.3,0.1-0.5
		c0-0.9-0.3-1.2-0.7-1.6l-0.1-0.1c-0.3-0.4-0.6-0.8-0.3-1.7c0.1-0.4,0.4-0.8,0.7-1.2c-0.6,0.5-1.2,1.3-1.2,2.4h-0.1
		c-0.1-0.6-0.1-1.3,0-2.1c0.2-0.9,0.6-1.9,1.2-2.9c-0.1,0.2-0.3,0.4-0.5,0.7c-0.4,0.6-0.9,1.5-1.2,2.6h-0.1
		c-0.1-0.8-0.1-1.7-0.1-2.7c0.1-1,0.3-2.1,0.6-3.3c-0.2,0.4-0.4,1-0.6,1.7c-0.4,1.2-0.8,3-0.6,4.7h-0.1c-0.5-0.8-0.9-1.8-1.2-3
		c-0.3-1.3-0.5-2.7-0.6-4.4c0,0.4-0.1,1-0.1,1.7c0,1.2,0,3,0.5,4.7H86c-0.3-0.5-0.6-1.1-0.9-1.9c-0.3-0.7-0.5-1.6-0.8-2.5
		c0,0.3,0.1,0.7,0.1,1.1c0.1,0.7,0.3,2,0.9,3.4v0.1h-0.1c-2.4,0.5-6-1.1-8.5-2.5c-2.9-1.6-5.8-3.7-7.4-5.1c-1.7-1.5-4.1-3.1-6.1-4.5
		c-0.5-0.3-1-0.7-1.5-1c-1.5-1-2.8-1.8-3.5-2.4c-0.2-0.2-0.5-0.4-0.8-0.5c-0.3-0.2-0.6-0.3-0.8-0.5c-0.3-0.1-0.5-0.2-0.8-0.3
		c-0.3-0.1-0.5-0.1-0.9-0.1c-0.5-0.1-1.1-0.2-1.7-0.4c-0.5-0.2-1.1-0.4-1.8-0.7c-1.1-0.5-2.2-1.1-3.5-1.8c-1.1-0.6-2.1-1.3-3.2-2.1
		c2.9,4.3,8.3,9.7,16,15.2c5.9,4.2,11.1,7.1,11.1,7.1l1.6,0.9c0.3,0.2,0.6,0.4,0.7,0.7c0.2,0.2,0.2,0.4,0.2,0.4v0.1l-3-1.4
		c-1.9-0.9-4.2-1.8-6-2.4c-0.4-0.1-0.8-0.3-1.2-0.4c-1.4-0.5-2.6-0.9-3.3-1.2c-0.3-0.1-0.6-0.3-0.9-0.4c-0.3-0.1-0.6-0.2-0.9-0.3
		c-0.3-0.1-0.6-0.1-0.9-0.1c-0.3,0-0.5,0-0.8,0h-0.1c-0.5,0-1.1,0-1.8-0.1c-0.6-0.1-1.3-0.2-1.9-0.4c-1.2-0.3-2.5-0.6-3.8-1.1
		c-1-0.4-2-0.8-3.4-1.3c6.5,4.5,13.2,8.2,19.9,10.9c5.1,2.1,8.2,2.7,8.2,2.7c0.6,0.2,1,0.4,1.2,0.5c0.2,0.2,0.3,0.3,0.3,0.3l0.1,0.1
		l-3-0.5c-1.6-0.2-3.4-0.4-4.9-0.5h-0.4c-1.6-0.1-2.9-0.2-3.8-0.4c-0.3-0.1-0.6-0.1-0.9-0.1s-0.6,0-0.9-0.1c-0.3,0-0.6,0-0.9,0.1
		c-0.2,0.1-0.5,0.1-0.8,0.2h-0.1c-0.5,0.2-1.1,0.3-1.7,0.4c-0.6,0.1-1.2,0.1-1.9,0.1c-1.3,0-2.6,0-4-0.1c-1.3-0.1-2.6-0.3-3.7-0.4
		c4.1,1.8,10.2,3.4,18.2,4.8c6.1,1.1,11,1.6,11.1,1.6c0.5,0.1,0.9,0.2,1.2,0.4c0.3,0.1,0.4,0.3,0.4,0.3L80,42h-0.1
		c0,0-2.9-0.2-5.9-0.3c-2.3-0.1-6.3-0.3-7.4-0.2c-0.3,0-0.6,0-1,0.1c-0.4,0.1-0.6,0.1-0.9,0.2c-0.3,0.1-0.6,0.2-0.8,0.3
		s-0.4,0.2-0.7,0.4l-0.2,0c-0.4,0.3-0.9,0.5-1.6,0.7c-0.5,0.2-1.1,0.4-1.8,0.6c-1.2,0.3-2.5,0.6-3.9,0.8c-1.1,0.2-2.2,0.3-3.7,0.4
		c3.9,0.7,8.2,1.1,13.2,1.1c4.4,0,9.3-0.3,15-0.8l2.8-0.4l0,0c0.5,0,0.9,0.1,1.3,0.2c0.3,0.1,0.4,0.2,0.4,0.2l0.1,0.1h-0.1
		c0,0-1.1,0.2-2.3,0.3c-0.3,0-0.6,0.1-0.9,0.1c-0.9,0.1-1.6,0.2-1.9,0.2c-1.1,0.1-2.2,0.2-3.3,0.4c-1.2,0.2-2.4,0.4-3.4,0.6l0,0
		c-0.4,0.1-0.7,0.1-1.1,0.2c-0.4,0.1-0.8,0.3-1.1,0.4c-0.1,0.1-0.2,0.2-0.4,0.3L70.2,48c-0.1,0.1-0.1,0.1-0.2,0.2
		c-0.5,0.4-1.1,0.8-1.9,1.2c-0.6,0.3-1.2,0.5-1.8,0.7h-0.1c-0.7,0.3-1.3,0.5-1.9,0.7c-0.4,0.1-0.9,0.3-1.5,0.4
		c2.5,0,5.3-0.2,8.5-0.7c2.9-0.4,5.8-1,9.4-1.8c0.1,0,0.4-0.1,0.9-0.2c0.3-0.1,0.6-0.1,0.8-0.2c0.8-0.2,1.6-0.4,1.6-0.4
		c0.5-0.1,0.9-0.1,1.3,0c0.3,0,0.4,0.1,0.4,0.1h0.1l-3.2,1.1c-0.6,0.2-1.1,0.3-1.7,0.4c-0.5,0.1-0.9,0.2-1.4,0.4
		c-1.3,0.3-2.3,0.6-3.2,1c-0.3,0.1-0.7,0.3-1.1,0.6c-0.3,0.2-0.6,0.5-0.9,0.7l-0.1,0.1c-0.1,0.1-0.2,0.2-0.3,0.3l-0.1,0.1
		c-0.1,0.1-0.1,0.2-0.2,0.3c-0.4,0.5-1,1-1.7,1.5c-0.5,0.4-1.1,0.7-1.6,1l-0.2,0.1c-0.6,0.3-1.1,0.7-1.7,1c-0.5,0.3-1,0.5-1.4,0.7
		c2.4-0.4,6.3-1.6,11.7-3.5c4.2-1.5,7.7-2.9,7.7-2.9c0.6-0.3,1-0.3,1.2-0.4c0.3,0,0.4,0,0.5,0h0.1l-0.1,0.1c0,0-1.5,0.9-3.1,1.9
		c-1.2,0.8-3.5,2.2-4.5,2.9h-0.1c-0.3,0.2-0.6,0.4-0.9,0.7s-0.6,0.6-0.8,0.9c-0.1,0.1-0.1,0.3-0.2,0.4c0,0.1,0,0.1-0.1,0.2
		c0,0.1-0.1,0.2-0.1,0.3c-0.3,0.6-0.7,1.2-1.2,1.9c-0.5,0.6-0.9,1-1.4,1.5l0,0c-0.4,0.4-0.9,0.9-1.4,1.4c-0.5,0.4-0.8,0.8-1.2,1.1
		c2.5-1.1,5.6-2.8,8.4-4.7c3.1-2,5.8-4.1,7.5-5.7l1-1c0.4-0.3,0.7-0.5,1.1-0.7c0.3-0.1,0.4-0.1,0.4-0.1h0.1l-2.2,2.3
		c-0.1,0.1-0.2,0.2-0.3,0.4L89,54.4c-0.2,0.2-0.3,0.3-0.4,0.4c-1.3,1.3-2.4,2.6-3.4,4.1c-0.8,1.2-1.6,2.5-2.4,4l-0.3,0.5l0,0l0,0
		c0,0,0-0.1,0.1-0.1l0.2-0.2c0.4-0.4,0.9-0.8,1.4-1.2c0.6-0.5,1.2-0.9,1.7-1.3c0.3-0.2,0.5-0.3,0.8-0.4c0.3-0.1,0.5-0.2,0.8-0.3
		c0.3-0.1,0.7-0.4,1.1-0.9c0.3-0.3,0.6-0.7,0.9-1.2c0.4-0.5,0.6-0.8,0.8-1.1l0.1-0.1c0.2-0.3,0.4-0.6,0.8-1.2l0.7-1
		c0.3-0.3,0.6-0.6,1-0.8c0.3-0.1,0.4-0.2,0.4-0.2h0.1l-1.7,2.4c-0.8,1.2-1.6,2.6-2.4,4.3c-0.7,1.6-1.5,3.3-2.2,5.2l0,0v-0.1
		c0,0,0,0,0-0.1l0.1-0.2c0.4-0.5,0.8-1,1.2-1.5c0.4-0.5,0.9-1.1,1.5-1.6c0.2-0.2,0.5-0.3,0.7-0.5c0.1-0.1,0.2-0.1,0.3-0.2
		c0.2-0.1,0.3-0.2,0.5-0.3c0.3-0.2,0.6-0.6,0.9-1.1c0.3-0.5,0.5-1,0.7-1.3l0.2-0.3c0.1-0.2,0.1-0.3,0.2-0.4v-0.1
		c0.1-0.1,0.1-0.3,0.3-0.6l0.6-1.3c0.2-0.4,0.5-0.8,0.8-1c0.2-0.2,0.4-0.3,0.4-0.3h0.1l-1.2,2.9c-0.8,1.7-1.4,3.3-1.9,5.2
		c-0.5,1.7-0.8,3.5-1.1,5.3l0,0v-0.1c0,0,0,0,0-0.1c0.1-0.2,0.2-0.4,0.3-0.5c0.2-0.5,0.5-0.9,0.7-1.4c0.4-0.7,0.8-1.3,1.2-1.8
		c0.2-0.2,0.4-0.4,0.6-0.6c0.1-0.1,0.1-0.1,0.2-0.2c0.1-0.1,0.3-0.2,0.4-0.4c0.3-0.2,0.5-0.6,0.7-1.2c0.2-0.5,0.3-1,0.5-1.4l0,0
		c0.1-0.4,0.2-0.6,0.2-0.9c0.1-0.2,0.1-0.5,0.2-0.9l0.4-1.6c0.2-0.4,0.4-0.8,0.6-1.1c0.2-0.2,0.3-0.3,0.3-0.3l0.1-0.1l-0.7,3.2
		c-0.5,2-0.8,3.8-1.1,5.5c-0.2,1.8-0.4,3.5-0.5,5.6l0,0v-0.1l0,0l0.1-0.2c0.2-0.6,0.4-1.2,0.7-1.8c0.3-0.8,0.6-1.4,1-1.9
		c0.1-0.2,0.3-0.4,0.5-0.7c0.1-0.1,0.1-0.1,0.2-0.2c0.1-0.1,0.3-0.3,0.4-0.4c0.2-0.3,0.4-0.8,0.5-1.8C99,62,99,61.6,99,61.2
		c0-0.3,0.1-0.6,0.1-0.8c0.1-0.4,0.1-0.7,0.1-1.1v-0.2c0-0.4,0.1-0.8,0.1-1.2l0,0l0.2-1.6c0.1-0.6,0.3-1,0.5-1.2
		c0.2-0.2,0.3-0.4,0.3-0.4l0.1-0.1l-0.3,3.3c-0.1,1.1-0.3,3.2-0.3,5.3c0,2.3,0.2,4,0.5,5.2l0,0c0,0,0,0,0-0.1v-0.1
		c0.1-0.5,0.2-0.9,0.3-1.4c0.1-0.5,0.2-1,0.4-1.4c0.1-0.2,0.2-0.3,0.3-0.5l0.1-0.1c0.1-0.1,0.2-0.2,0.2-0.4c0.1-0.2,0.2-0.5,0.2-0.9
		s0-0.7,0-1.1c0-0.2-0.1-1.8-0.1-1.8L102,59l0.1,0.1c0,0,0.1,0.1,0.3,0.4c0.1,0.2,0.3,0.6,0.4,1.2l0.1,1.6c0,1.6,0,2,0.1,3.5
		c0.1,1.7,0.4,3.1,0.8,4.4c0,0,0,0,0-0.1c0-0.5,0.1-0.8,0.1-1.1c0-0.2,0.1-0.3,0.1-0.5c0-0.1,0.1-0.3,0.1-0.5
		c0.1-0.2,0.1-0.4,0.2-0.5c0-0.2,0.1-0.3,0.2-0.5s0.1-0.5,0.1-1c0-0.4,0-0.8-0.1-1.1c-0.1-0.5-0.2-0.8-0.3-1c0-0.1-0.1-0.2-0.1-0.3
		c-0.1-0.4-0.2-0.8-0.2-1.5V62h0.1c0.1,0.1,0.2,0.2,0.3,0.2c0.1,0.1,0.2,0.2,0.3,0.2c0.1,0.1,0.2,0.2,0.3,0.3
		c0.1,0.1,0.3,0.2,0.4,0.3l0,0c0.3,0.7,0.7,2.2,0.7,4s-0.4,3.6-1.1,4.8c0.1,0.2,0.6,1.8,1.2,5.1c0.5,3.1,1.2,8.4,1.7,16.1
		c0.5-7.8,1.2-13,1.7-16.1c0.6-3.3,1.1-4.9,1.2-5.1c-0.7-1.2-1.1-3-1.1-4.8c0-1.6,0.3-3.2,0.7-4l0,0l0.1-0.1
		c0.3-0.2,0.5-0.4,0.7-0.5l0.1-0.1c0.2-0.1,0.3-0.2,0.5-0.4h0.1V62c0,0.7-0.1,1.1-0.2,1.5c0,0.1-0.1,0.2-0.1,0.3
		c-0.1,0.3-0.2,0.6-0.3,1c-0.1,0.3-0.1,0.7-0.1,1.1s0,0.8,0.1,1s0.1,0.4,0.2,0.5v0.1c0,0.1,0.1,0.3,0.1,0.4l0.1,0.2
		c0.1,0.3,0.1,0.6,0.2,0.8c0.1,0.3,0.1,0.6,0.1,1.1v0.1c0.4-1.3,0.6-2.8,0.8-4.5c0.1-1.6,0.1-2,0.1-3.5l0.1-1.6
		c0.1-0.6,0.3-1,0.4-1.2c0.1-0.3,0.3-0.4,0.3-0.4l0.1-0.1v0.1l-0.1,1.6c0,0-0.1,1.5-0.1,1.8s0,0.7,0,1.1c0,0.4,0.1,0.8,0.2,0.9
		s0.1,0.2,0.2,0.2c0.1,0.1,0.1,0.2,0.1,0.2c0.1,0.2,0.2,0.3,0.3,0.5c0.2,0.4,0.3,0.9,0.4,1.4c0.1,0.3,0.1,0.6,0.2,1
		c0,0.2,0.1,0.3,0.1,0.5v0.1c0.3-1.2,0.5-2.9,0.5-5.2c0-2.2-0.2-4.3-0.3-5.3l-0.3-3.3l0.1,0.1c0,0,0.1,0.1,0.3,0.4
		c0.1,0.2,0.3,0.6,0.5,1.2l0.2,1.7c0,0.4,0.1,0.8,0.1,1.1l0,0c0,0.4,0.1,0.8,0.2,1.3c0,0.2,0.1,0.5,0.1,0.8c0,0.4,0.1,0.8,0.1,1.2
		c0.1,1,0.3,1.6,0.5,1.8c0.2,0.2,0.4,0.5,0.6,0.6c0.2,0.2,0.4,0.4,0.5,0.7c0.3,0.6,0.7,1.2,1,1.9c0.2,0.5,0.4,1.1,0.6,1.6
		c0.1,0.2,0.1,0.3,0.2,0.4l0,0v0.1l0,0c-0.1-2-0.2-3.8-0.5-5.6c-0.2-1.7-0.6-3.5-1.1-5.5l-0.7-3.2l0.1,0.1c0,0,0.1,0.1,0.3,0.3
		c0.2,0.2,0.4,0.6,0.6,1.1l0.4,1.6c0.1,0.4,0.1,0.6,0.2,0.9c0.1,0.3,0.1,0.5,0.2,0.9V60c0.1,0.4,0.3,0.9,0.4,1.3
		c0.2,0.6,0.5,1,0.7,1.2c0.2,0.1,0.3,0.3,0.4,0.4c0.1,0.1,0.2,0.1,0.2,0.2c0.2,0.2,0.4,0.4,0.6,0.6c0.4,0.5,0.8,1.1,1.2,1.8
		c0.4,0.6,0.7,1.3,1,1.9c0,0,0,0,0,0.1v0.1l0,0c-0.3-2.1-0.7-3.7-1.1-5.3c-0.5-1.8-1.1-3.4-1.9-5.2l-1.2-2.9h0.1
		c0,0,0.2,0.1,0.4,0.3c0.3,0.3,0.6,0.6,0.8,1l0.6,1.3c0.1,0.1,0.1,0.3,0.2,0.4c0.1,0.1,0.1,0.2,0.1,0.3s0.1,0.1,0.1,0.2
		c0.1,0.1,0.1,0.3,0.2,0.5c0.2,0.4,0.4,0.9,0.7,1.3c0.3,0.5,0.6,0.9,0.9,1.1c0.2,0.1,0.3,0.2,0.5,0.3c0.1,0,0.2,0.1,0.3,0.1
		c0.2,0.1,0.5,0.3,0.7,0.5c0.5,0.4,1,1,1.5,1.6c0.3,0.4,0.7,0.8,1,1.2c0.1,0.2,0.2,0.3,0.4,0.5c0,0,0,0.1,0.1,0.1l0,0l0,0
		c-0.7-1.9-1.4-3.7-2.2-5.2c-0.8-1.7-1.6-3.1-2.4-4.3L122,53h0.1c0,0,0.2,0,0.4,0.2c0.2,0.1,0.6,0.4,1,0.8l0.7,1
		c0.4,0.6,0.6,0.9,0.8,1.2c0.2,0.3,0.4,0.6,0.8,1.2l0.1,0.1c0.2,0.3,0.5,0.8,0.9,1.1c0.4,0.5,0.8,0.8,1.1,0.9
		c0.2,0.1,0.4,0.2,0.6,0.2c0.1,0,0.1,0,0.2,0.1c0.3,0.1,0.5,0.2,0.8,0.4c0.6,0.3,1.1,0.8,1.7,1.3c0.4,0.4,0.9,0.8,1.3,1.1
		c0.1,0.1,0.2,0.2,0.3,0.3l0,0c0,0,0,0,0.1,0.1l0,0l-0.2-0.3c-0.9-1.6-1.7-3-2.6-4.3c-1-1.5-2.1-2.8-3.4-4.1
		c-0.1-0.1-0.3-0.3-0.4-0.4c-0.2-0.2-0.3-0.4-0.5-0.5l-2.2-2.3h0.1c0,0,0.2,0,0.4,0.1c0.4,0.1,0.7,0.4,1.1,0.7l1,1
		c1.6,1.7,4.3,3.7,7.5,5.7c2.8,1.8,5.9,3.5,8.4,4.7c-0.4-0.3-0.8-0.7-1.2-1.1c-0.5-0.5-1-1-1.4-1.4c-0.4-0.5-0.9-1-1.4-1.5
		c-0.5-0.6-0.9-1.2-1.2-1.9c0-0.1-0.1-0.2-0.1-0.3s0-0.1-0.1-0.2c-0.1-0.1-0.1-0.3-0.2-0.4c-0.2-0.3-0.5-0.6-0.8-0.8
		s-0.6-0.5-0.9-0.7h-0.1c-1.1-0.8-3.5-2.3-4.5-2.9c-1.7-1-3.1-1.9-3.2-1.9l-0.1-0.1h0.1c0,0,0.2,0,0.5,0s0.7,0.1,1.2,0.4
		c0,0,3.6,1.4,7.7,2.9c3.7,1.3,8.6,3,11.7,3.5c-0.5-0.2-0.9-0.4-1.4-0.7s-1.1-0.6-1.6-0.9H145c-0.6-0.3-1.2-0.7-1.8-1.1
		c-0.7-0.5-1.2-1-1.7-1.5c-0.1-0.1-0.1-0.2-0.2-0.3l-0.1-0.1c-0.1-0.1-0.2-0.3-0.3-0.3c-0.3-0.3-0.6-0.6-1-0.8
		c-0.4-0.3-0.7-0.5-1.1-0.6c-1.2-0.4-2.3-0.8-3.2-1c-0.5-0.1-0.9-0.2-1.4-0.4c-0.6-0.1-1.2-0.3-1.8-0.5l-3.2-1.1h0.1
		c0,0,0.1-0.1,0.4-0.1s0.7-0.1,1.3,0c0,0,0.8,0.2,1.6,0.4l0.9,0.2c0.4,0.1,0.8,0.2,0.9,0.2c3,0.6,6.3,1.3,9.4,1.8s5.6,0.7,8,0.7
		c0.2,0,0.4,0,0.5,0c-0.5-0.1-1-0.3-1.5-0.4c-0.6-0.2-1.1-0.4-1.9-0.7h-0.1c-0.6-0.2-1.2-0.4-1.8-0.7c-0.7-0.4-1.4-0.7-1.9-1.2
		c-0.1-0.1-0.2-0.1-0.2-0.2l-0.1-0.1c-0.1-0.1-0.2-0.2-0.4-0.3c-0.3-0.2-0.7-0.3-1.1-0.4c-0.3-0.1-0.7-0.1-1-0.2h-0.1
		c-1.2-0.2-2.3-0.4-3.4-0.6c-1.3-0.2-2.4-0.3-3.3-0.4c-0.4,0-1.7-0.2-2.9-0.4c-1.2-0.2-2.3-0.3-2.3-0.3h-0.1l0.1-0.1
		c0,0,0.1-0.1,0.4-0.2c0.4-0.1,0.8-0.2,1.3-0.2l2.8,0.4c5.8,0.6,10.7,0.8,15,0.8c5,0,9.3-0.3,13.2-1.1c-1.2-0.1-2.4-0.3-3.7-0.4
		c-1.4-0.2-2.7-0.5-3.9-0.8c-0.7-0.2-1.3-0.4-1.8-0.6c-0.6-0.2-1.1-0.5-1.6-0.7l-0.1-0.1c-0.2-0.1-0.5-0.3-0.7-0.4
		c-0.3-0.1-0.5-0.2-0.8-0.3c-0.3-0.1-0.6-0.1-0.9-0.2c-0.3,0-0.6-0.1-1-0.1c-1,0-4.5,0.1-7.4,0.2c-3,0.1-5.9,0.3-5.9,0.3h-0.1
		l0.1-0.1c0,0,0.1-0.1,0.4-0.3c0.3-0.2,0.7-0.3,1.2-0.4c0.1,0,5-0.6,11.1-1.6c8-1.4,14.1-3.1,18.2-4.8c-1.2,0.1-2.4,0.3-3.7,0.4
		c-1.5,0.1-2.8,0.1-4,0.1c-0.6,0-1.3-0.1-1.9-0.1c-0.7-0.1-1.2-0.2-1.7-0.4h-0.1c-0.3-0.1-0.5-0.2-0.8-0.2c-0.3-0.1-0.5-0.1-0.9-0.1
		c-0.3,0-0.6,0-0.9,0.1c-0.3,0-0.6,0.1-0.9,0.1c-1,0.2-2.5,0.3-4,0.4h-0.1c-1.6,0.1-3.4,0.2-5,0.5l-3.3,0.5l0.1-0.1
		c0,0,0.1-0.1,0.3-0.3c0.3-0.2,0.7-0.4,1.2-0.5c0,0,3.2-0.7,8.2-2.7C156.1,29.8,162.8,26.1,169.3,21.6z"/>
</g>
<g id="Chaos_Cross" class="st0">
	<g class="st2">
		<polygon points="107.8,413.5 82.3,121.7 97.7,130.6 99.2,131.4 99.2,129.7 99.2,104.2 99.2,103.5 98.6,103.2 80.5,95.7 79.9,95.5 
			79.4,95.9 61.4,114 60.1,115.2 61.8,115.6 78.4,120.1 0.4,162.6 42.8,84.6 47.3,101.1 47.7,102.8 48.9,101.6 67,83.5 67.5,83.1 
			67.2,82.4 59.7,64.3 59.5,63.7 58.8,63.7 33.3,63.7 31.6,63.7 32.5,65.2 41.2,80.4 -99.1,54.9 41.2,29.5 32.5,44.7 31.6,46.2 
			33.3,46.2 58.9,46.2 59.5,46.2 59.8,45.5 67.3,27.5 67.5,26.9 67.1,26.4 49,8.4 47.8,7.1 47.4,8.8 42.9,25.4 0.5,-52.6 
			78.5,-10.2 61.9,-5.7 60.2,-5.3 61.5,-4.1 79.5,14 80,14.5 80.6,14.2 98.7,6.7 99.3,6.5 99.3,5.8 99.3,-19.6 99.3,-21.3 
			97.8,-20.5 82.7,-11.9 108.1,-152.1 133.5,-11.9 118.3,-20.5 116.8,-21.4 116.8,-19.7 116.8,5.8 116.8,6.5 117.5,6.8 135.5,14.3 
			136.2,14.5 136.6,14.1 154.7,-4 155.9,-5.2 154.2,-5.6 137.6,-10.1 215.6,-52.5 173.2,25.5 168.7,8.9 168.3,7.2 167.1,8.4 
			149,26.5 148.5,27 148.8,27.6 156.3,45.7 156.5,46.3 157.2,46.3 182.7,46.3 184.4,46.3 183.6,44.8 174.8,29.6 313.2,55.1 
			174.8,80.5 183.6,65.3 184.4,63.8 182.7,63.8 157.2,63.8 156.5,63.8 156.2,64.5 148.7,82.5 148.5,83.2 149,83.6 167,101.7 
			168.2,102.9 168.6,101.2 173.1,84.6 215.6,162.6 137.6,120.2 154.1,115.7 155.8,115.3 154.6,114.1 136.5,96 136.1,95.5 
			135.4,95.8 117.3,103.3 116.7,103.5 116.7,104.2 116.7,129.7 116.7,131.4 118.2,130.6 133.6,121.7 		"/>
		<path class="st4" d="M108.1-157.8L134.8-9.9l-17-9.7l0.1,25.5l18.1,7.5l18-18l-19-5.2L218.1-55l-45.2,83.2l-5.1-19l-18,18.1
			l7.5,18.1h25.5l-9.8-17l145.8,26.8L172.9,81.9l9.8-17h-25.5L149.7,83l18,18l5.1-19l45.2,83.2L134.8,120l19-5.1l-18-18l-18.1,7.5
			v25.5l17.1-9.8l-27,305l-26.7-305l17,9.8v-25.5L80,96.9l-18,18l19,5.1l-83.2,45.3l45.3-83.4l5.1,19l18-18.1l-7.5-18.1H33.3l9.8,17
			l-147.9-26.8L43.1,28.1l-9.8,17h25.5L66.3,27l-18-18l-5.1,19L-2-55.1L81.1-9.9l-19,5.1l18,18l18.1-7.5v-25.4l-17,9.7L108.1-157.8
			 M108.1-146.5L84-13.8l13.3-7.6l3-1.7v3.4V5.8v1.3L99,7.7l-18,7.4l-1.2,0.5l-0.9-0.9l-18.2-18l-2.4-2.5l3.3-0.9l14.2-3.8L3-50.1
			l39.6,72.8l3.8-14.2l0.9-3.3l2.4,2.4l18,18l1,1l-0.5,1.2l-7.5,18.1l-0.5,1.2h-1.3H33.3h-3.5l1.7-3l7.7-13.3L-93.6,54.9L39.2,79
			l-7.7-13.3l-1.7-3h3.5h25.5h1.3l0.5,1.2L68.1,82l0.5,1.2l-0.9,0.9l-18,18l-2.4,2.4l-0.9-3.3l-3.9-14L2.9,160l72.8-39.6l-14.2-3.8
			l-3.3-0.9l2.4-2.4l18-18l1-0.9l1.2,0.5l18.1,7.5l1.2,0.5v1.3v25.5v3.5l-3-1.7l-13.7-7.9L107.8,402l24.7-278.5l-13.7,7.9l-3,1.7
			v-3.5v-25.5v-1.3l1.2-0.5l18-7.4l1.2-0.5l0.9,0.9l18,18l2.4,2.4l-3.3,0.9l-14.2,3.8l72.8,39.6l-39.6-72.8l-3.8,14.2l-0.9,3.3
			l-2.4-2.4l-18-18l-0.9-0.9l0.5-1.2l7.5-18.1l0.5-1.2h1.3h25.5h3.5l-1.7,3l-7.6,13.3l130.9-24.1L176.8,31l7.6,13.3l1.7,3h-3.5
			h-25.5h-1.3l-0.5-1.2L147.9,28l-0.5-1.2l0.9-0.9l18-18l2.4-2.4l0.9,3.3l3.8,14.2l39.7-73l-72.8,39.6l14.2,3.8l3.3,0.9l-2.4,2.4
			l-18,18l-0.9,0.9l-1.2-0.5l-18-7.5l-1.2-0.5V5.9v-25.5v-3.5l3,1.7l13.3,7.6L108.1-146.5L108.1-146.5z"/>
	</g>
</g>
</svg>
