<?xml version="1.0" encoding="utf-8"?>
<!-- Generator: Adobe Illustrator 26.0.3, SVG Export Plug-In . SVG Version: 6.00 Build 0)  -->
<svg version="1.1" xmlns="http://www.w3.org/2000/svg" xmlns:xlink="http://www.w3.org/1999/xlink" x="0px" y="0px"
	 viewBox="0 0 144 144" style="enable-background:new 0 0 144 144;" xml:space="preserve">
<style type="text/css">
	.st0{fill:#053EFF;}
	.st1{fill:#FFFFFF;}
</style>
<g id="Layer_1">
	<path class="st0" d="M42.1,136.2c-18.9,0-34.3-15.4-34.3-34.3V42.1c0-18.9,15.4-34.3,34.3-34.3h59.8c18.9,0,34.3,15.4,34.3,34.3
		v59.8c0,18.9-15.4,34.3-34.3,34.3H42.1z"/>
</g>
<g id="Layer_2">
	<g>
		<path class="st1" d="M75.5,82.9c0,1.9-0.4,3.6-1.1,5c-0.8,1.4-1.8,2.7-3.2,3.6c-1.3,1-2.9,1.7-4.6,2.2c-1.8,0.5-3.6,0.8-5.6,0.8
			H39.1V49.3h24.2c1.6,0,3,0.3,4.3,1c1.3,0.7,2.4,1.6,3.2,2.6c0.9,1.1,1.6,2.3,2.1,3.7c0.5,1.4,0.7,2.8,0.7,4.2
			c0,2.2-0.6,4.3-1.7,6.2c-1.1,1.9-2.7,3.4-4.8,4.3c2.6,0.8,4.6,2.1,6.1,4.1C74.7,77.5,75.5,79.9,75.5,82.9z M47.9,56.9v11.4h11.7
			c1.5,0,2.7-0.5,3.8-1.5c1-1,1.6-2.4,1.6-4.2c0-1.7-0.5-3.1-1.4-4.1c-1-1-2.1-1.5-3.5-1.5H47.9z M66.6,81.2c0-0.8-0.1-1.6-0.4-2.3
			c-0.3-0.7-0.6-1.4-1.1-1.9c-0.5-0.6-1-1-1.7-1.3c-0.6-0.3-1.3-0.5-2.1-0.5H47.9v11.9h13.1c0.8,0,1.6-0.1,2.3-0.4
			c0.7-0.3,1.3-0.7,1.8-1.2c0.5-0.5,0.9-1.2,1.2-1.9C66.5,82.8,66.6,82,66.6,81.2z"/>
		<path class="st1" d="M94.5,94.5c-2.6,0-4.9-0.4-7-1.3c-4.2-1.8-7.1-4.7-8.8-8.9c-0.8-2-1.2-4.1-1.2-6.4c0-2.3,0.4-4.5,1.2-6.5
			c1.7-4.2,4.6-7.2,8.8-9c2.1-0.9,4.5-1.4,7.1-1.4c2.6,0,5,0.5,7.1,1.4c6.8,3,10,9.6,9.7,16.8c0,0.5-0.1,0.9-0.2,1.2h-25
			c0.1,1.3,0.4,2.4,0.9,3.4c0.5,1,1.1,1.8,1.9,2.5c0.8,0.7,1.7,1.2,2.7,1.6c1,0.4,2,0.6,3.1,0.6c1.6,0,3.2-0.4,4.7-1.2
			c1.5-0.8,2.5-1.9,3-3.2l7.1,2c-1.2,2.5-3.1,4.5-5.7,6.1C101.3,93.8,98.1,94.5,94.5,94.5z M102.9,75.1c-0.2-2.4-1.1-4.4-2.7-5.8
			c-1.6-1.5-3.5-2.2-5.8-2.2c-1.1,0-2.1,0.2-3.1,0.6c-1,0.4-1.8,0.9-2.6,1.6C88,70,87.4,70.8,87,71.8c-0.5,1-0.8,2.1-0.8,3.3
			L102.9,75.1L102.9,75.1z"/>
		<path class="st1" d="M83.6,51.5h21.6v5.4H83.6V51.5z"/>
	</g>
</g>
</svg>
