<?xml version="1.0" encoding="utf-8"?>
<!-- Generator: Adobe Illustrator 26.0.3, SVG Export Plug-In . SVG Version: 6.00 Build 0)  -->
<svg version="1.1" id="Layer_1" xmlns="http://www.w3.org/2000/svg" xmlns:xlink="http://www.w3.org/1999/xlink" x="0px" y="0px"
	 viewBox="0 0 144 144" style="enable-background:new 0 0 144 144;" xml:space="preserve">
<style type="text/css">
	.st0{fill:#0046E5;}
	.st1{fill:#FFFFFF;}
</style>
<g>
	<path class="st0" d="M42.1,136.2c-18.9,0-34.3-15.4-34.3-34.3V42.1c0-18.9,15.4-34.3,34.3-34.3h59.8c18.9,0,34.3,15.4,34.3,34.3
		v59.8c0,18.9-15.4,34.3-34.3,34.3H42.1z"/>
</g>
<path class="st1" d="M57.9,99.3H45.7v-39h12.2V99.3z M51.8,54.9c-3.9,0-7-3.2-7-7c-0.1-3.8,3.1-7,7-7s7,3.2,7,7
	C58.8,51.8,55.7,54.9,51.8,54.9z M103.3,99.3H91.2v-19c0-4.5-0.1-10.4-6.3-10.4c-6.3,0-7.3,4.9-7.3,10v19.3H65.5V60.3h11.6v5.3h0.2
	c1.6-3.1,5.6-6.3,11.5-6.3c12.3,0,14.5,8.1,14.5,18.6C103.3,77.9,103.3,99.3,103.3,99.3z"/>
</svg>
